<svg xmlns="http://www.w3.org/2000/svg" viewBox="0 0 126 96.66"><defs><style>.cls-1{fill:#151515;}</style></defs><title>Ativo 21</title><g id="Camada_2" data-name="Camada 2"><g id="Camada_1-2" data-name="Camada 1"><path class="cls-1" d="M126,55a15,15,0,0,0-8.5-13.5V12.6c0-6.95-6.73-12.6-15-12.6h-76c-8.27,0-15,5.65-15,12.6V40.43A15,15,0,0,0,0,55V86.5H9.6l1.79,7.41c.51,1.73,1.24,2.75,2.75,2.75h2.11A2.76,2.76,0,0,0,19,93.91V86.5h90.36v7.41a2.76,2.76,0,0,0,2.75,2.75h2.12c1.51,0,2.23-1,2.74-2.75l1.79-7.41H126ZM26.5,6h76c4.88,0,9,3,9,6.6V40c-.17,0-.33,0-.5,0h-9V38.24A13.26,13.26,0,0,0,88.76,25H79.24A13.26,13.26,0,0,0,66,38.24V40H63V38.24A13.26,13.26,0,0,0,49.76,25H40.24A13.26,13.26,0,0,0,27,38.24V40H17.5V12.6C17.5,9,21.62,6,26.5,6ZM96,40H72V38.24A7.25,7.25,0,0,1,79.24,31h9.52A7.25,7.25,0,0,1,96,38.24ZM57,40H33V38.24A7.25,7.25,0,0,1,40.24,31h9.52A7.25,7.25,0,0,1,57,38.24Zm63,40.5H6V55a9,9,0,0,1,9-9h96a9,9,0,0,1,9,9Z"/></g></g></svg>