<svg xmlns="http://www.w3.org/2000/svg" viewBox="0 0 86 139.03"><defs><style>.cls-1{fill:#151515;}</style></defs><title>Ativo 22</title><g id="Camada_2" data-name="Camada 2"><g id="Camada_1-2" data-name="Camada 1"><path class="cls-1" d="M71,0H15A15,15,0,0,0,0,15V128.5H6.68l1.88,7.79C9.07,138,9.79,139,11.3,139h2.12a2.75,2.75,0,0,0,2.75-2.74V128.5H70v7.79A2.75,2.75,0,0,0,72.78,139h2.11c1.51,0,2.24-1,2.75-2.74l1.88-7.79H86V15A15,15,0,0,0,71,0Zm9,122.5H6V88H80ZM80,47V81.5H6V47ZM6,15a9,9,0,0,1,9-9H71a9,9,0,0,1,9,9V40.5H6Z"/><path class="cls-1" d="M53,19.25a1.5,1.5,0,0,0-1.5,1.5v3.5h-17v-3.5a1.5,1.5,0,0,0-3,0v5a1.5,1.5,0,0,0,1.5,1.5H53a1.5,1.5,0,0,0,1.5-1.5v-5A1.5,1.5,0,0,0,53,19.25Z"/><path class="cls-1" d="M33,68.25H53a1.5,1.5,0,0,0,1.5-1.5v-5a1.5,1.5,0,0,0-3,0v3.5h-17v-3.5a1.5,1.5,0,0,0-3,0v5A1.5,1.5,0,0,0,33,68.25Z"/><path class="cls-1" d="M33,109.25H53a1.5,1.5,0,0,0,1.5-1.5v-5a1.5,1.5,0,0,0-3,0v3.5h-17v-3.5a1.5,1.5,0,0,0-3,0v5A1.5,1.5,0,0,0,33,109.25Z"/></g></g></svg>