<svg xmlns="http://www.w3.org/2000/svg" viewBox="0 0 126 78.16"><defs><style>.cls-1{fill:#151515;}</style></defs><title>Ativo 20</title><g id="Camada_2" data-name="Camada 2"><g id="Camada_1-2" data-name="Camada 1"><path class="cls-1" d="M111.25,21.26V15a15,15,0,0,0-15-15h-66a15,15,0,0,0-15,15v6.25H15a15,15,0,0,0-15,15V57.84a9.43,9.43,0,0,0,8.15,9.32l2,8.25c.51,1.73,1.24,2.75,2.75,2.75H15a2.76,2.76,0,0,0,2.75-2.75V67.25h90.36v8.16a2.76,2.76,0,0,0,2.75,2.75H113c1.51,0,2.23-1,2.74-2.75l2-8.23A9.43,9.43,0,0,0,126,57.84V36.25A15,15,0,0,0,111.25,21.26ZM30.25,6h66a9,9,0,0,1,9,9V33H72.79a12.51,12.51,0,0,0-9.54,4.42A12.51,12.51,0,0,0,53.71,33H21.25V15A9,9,0,0,1,30.25,6Zm-9,33H53.71a6.54,6.54,0,0,1,6.54,6.54V50H24.66a3.41,3.41,0,0,1-3.41-3.41Zm45,6.54A6.54,6.54,0,0,1,72.79,39h32.46v7.59A3.41,3.41,0,0,1,101.84,50H66.25ZM120,57.84a3.41,3.41,0,0,1-3.41,3.41H9.41A3.41,3.41,0,0,1,6,57.84V36.25a9,9,0,0,1,9-9h.25V46.59A9.42,9.42,0,0,0,24.66,56h77.18a9.42,9.42,0,0,0,9.41-9.41V27.26a9,9,0,0,1,8.75,9Z"/><path class="cls-1" d="M37.19,24.56a1.5,1.5,0,0,0,2.12,0l1.94-1.94,1.94,1.94a1.5,1.5,0,0,0,2.12,0,1.49,1.49,0,0,0,0-2.12L43.37,20.5l1.94-1.94a1.5,1.5,0,0,0-2.12-2.12l-1.94,1.94-1.94-1.94a1.5,1.5,0,0,0-2.12,2.12l1.94,1.94-1.94,1.94A1.49,1.49,0,0,0,37.19,24.56Z"/><path class="cls-1" d="M82.19,24.56a1.5,1.5,0,0,0,2.12,0l1.94-1.94,1.94,1.94a1.5,1.5,0,0,0,2.12,0,1.49,1.49,0,0,0,0-2.12L88.37,20.5l1.94-1.94a1.5,1.5,0,0,0-2.12-2.12l-1.94,1.94-1.94-1.94a1.5,1.5,0,0,0-2.12,2.12l1.94,1.94-1.94,1.94A1.49,1.49,0,0,0,82.19,24.56Z"/></g></g></svg>