<svg xmlns="http://www.w3.org/2000/svg" viewBox="0 0 53 53"><defs><style>.cls-1{fill:#151515;}</style></defs><title>Ativo 10</title><g id="Camada_2" data-name="Camada 2"><g id="Camada_1-2" data-name="Camada 1"><path class="cls-1" d="M26.5,13A13.5,13.5,0,1,0,40,26.5,13.52,13.52,0,0,0,26.5,13Zm0,24A10.5,10.5,0,1,1,37,26.5,10.51,10.51,0,0,1,26.5,37Z"/><path class="cls-1" d="M26.5,10A1.5,1.5,0,0,0,28,8.53v-7a1.5,1.5,0,0,0-3,0v7A1.5,1.5,0,0,0,26.5,10Z"/><path class="cls-1" d="M26.5,43a1.5,1.5,0,0,0-1.5,1.5v7a1.5,1.5,0,0,0,3,0v-7A1.5,1.5,0,0,0,26.5,43Z"/><path class="cls-1" d="M10,26.5A1.5,1.5,0,0,0,8.53,25h-7a1.5,1.5,0,0,0,0,3h7A1.5,1.5,0,0,0,10,26.5Z"/><path class="cls-1" d="M51.5,25h-7a1.5,1.5,0,0,0,0,3h7a1.5,1.5,0,0,0,0-3Z"/><path class="cls-1" d="M12.75,38.13l-3,3a1.49,1.49,0,0,0,0,2.12,1.45,1.45,0,0,0,1.06.44,1.47,1.47,0,0,0,1.06-.44l3-3a1.49,1.49,0,0,0,0-2.12A1.51,1.51,0,0,0,12.75,38.13Z"/><path class="cls-1" d="M39.19,15.31a1.49,1.49,0,0,0,1.06-.44l3-3a1.5,1.5,0,0,0-2.12-2.12l-3,3a1.49,1.49,0,0,0,0,2.12A1.51,1.51,0,0,0,39.19,15.31Z"/><path class="cls-1" d="M40.25,38.13a1.51,1.51,0,0,0-2.12,0,1.49,1.49,0,0,0,0,2.12l3,3a1.47,1.47,0,0,0,1.06.44,1.45,1.45,0,0,0,1.06-.44,1.49,1.49,0,0,0,0-2.12Z"/><path class="cls-1" d="M12.75,14.87a1.49,1.49,0,0,0,1.06.44,1.51,1.51,0,0,0,1.06-.44,1.49,1.49,0,0,0,0-2.12l-3-3a1.5,1.5,0,1,0-2.12,2.12Z"/></g></g></svg>